<?xml version="1.0" encoding="UTF-8"?>
<svg width="54px" height="62px" viewBox="0 0 54 62" version="1.1" xmlns="http://www.w3.org/2000/svg" xmlns:xlink="http://www.w3.org/1999/xlink">
    <!-- Generator: Sketch 49 (51002) - http://www.bohemiancoding.com/sketch -->
    <title>Group 3</title>
    <desc>Created with Sketch.</desc>
    <defs>
        <linearGradient x1="4.11122323%" y1="51.3284095%" x2="95.8887768%" y2="51.3284095%" id="linearGradient-1">
            <stop stop-color="#36ADFD" offset="0%"></stop>
            <stop stop-color="#004CD4" offset="100%"></stop>
        </linearGradient>
    </defs>
    <g id="Page-1" stroke="none" stroke-width="1" fill="none" fill-rule="evenodd">
        <g id="切图-copy" transform="translate(-1410.000000, -528.000000)">
            <g id="Group-9" transform="translate(1411.000000, 529.000000)">
                <g id="Group-3">
                    <g id="Group-Copy-2" opacity="0.300000012" stroke="#327DF1" stroke-dasharray="2">
                        <path d="M25.4444444,0.555555556 L25.4444444,21.6666667" id="Line-2" stroke-linecap="square"></path>
                        <path d="M26,0 L51.9807621,15 L51.9807621,45 L26,60 L0.0192378865,45 L0.0192378865,15 L26,0 Z" id="Polygon-3"></path>
                        <path d="M52.4059687,30 L26.4252066,45 L0.444444444,30" id="Polygon-3-Copy" transform="translate(26.425207, 37.500000) scale(1, -1) translate(-26.425207, -37.500000) "></path>
                    </g>
                    <g id="盒子full" transform="translate(13.000000, 15.000000)">
                        <path d="M14.653008,16.7935442 L27.9935067,8.95718499 L27.9935067,24.4899786 L14.6063539,32.3263378 L14.653008,16.7935442 Z M13.2536836,16.7002359 L13.206992,32.1863753 L0.00649329759,24.489941 L0.00649329759,8.95714745 L13.2536836,16.7002359 Z" id="Shape" fill="url(#linearGradient-1)" fill-rule="nonzero"></path>
                        <polygon id="Path" fill="#59E6BD" points="14 15.5341072 27.2938445 7.74436461 14 0.00127613941 0.706155496 7.74436461"></polygon>
                    </g>
                </g>
            </g>
        </g>
    </g>
</svg>