<?xml version="1.0" encoding="UTF-8"?>
<svg width="54px" height="62px" viewBox="0 0 54 62" version="1.1" xmlns="http://www.w3.org/2000/svg" xmlns:xlink="http://www.w3.org/1999/xlink">
    <!-- Generator: Sketch 49 (51002) - http://www.bohemiancoding.com/sketch -->
    <title>Group 3 Copy</title>
    <desc>Created with Sketch.</desc>
    <defs>
        <linearGradient x1="4.11122323%" y1="51.3284095%" x2="95.8887768%" y2="51.3284095%" id="linearGradient-1">
            <stop stop-color="#36ADFD" offset="0%"></stop>
            <stop stop-color="#004CD4" offset="100%"></stop>
        </linearGradient>
    </defs>
    <g id="Page-1" stroke="none" stroke-width="1" fill="none" fill-rule="evenodd">
        <g id="切图-copy" transform="translate(-1490.000000, -528.000000)">
            <g id="Group-10" transform="translate(1491.000000, 529.000000)">
                <g id="Group-3-Copy">
                    <g id="Group-Copy-2" opacity="0.300000012" stroke="#327DF1" stroke-dasharray="2">
                        <path d="M25.4444444,0.555555556 L25.4444444,21.6666667" id="Line-2" stroke-linecap="square"></path>
                        <path d="M26,0 L51.9807621,15 L51.9807621,45 L26,60 L0.0192378865,45 L0.0192378865,15 L26,0 Z" id="Polygon-3"></path>
                        <path d="M52.4059687,30 L26.4252066,45 L0.444444444,30" id="Polygon-3-Copy" transform="translate(26.425207, 37.500000) scale(1, -1) translate(-26.425207, -37.500000) "></path>
                    </g>
                    <path d="M37.5622486,20.3379892 L27.4212843,14.4875027 C26.3647611,13.8777989 24.6356627,13.8777989 23.5790184,14.4875027 L13.4384778,20.3379286 C12.3818335,20.9474811 11.5174054,22.4437103 11.5174054,23.6630876 L11.5174054,35.3639697 C11.5174054,36.5831957 12.3818335,38.0794249 13.4384778,38.6890984 L23.5790184,44.5395243 C24.6356627,45.1490768 26.3647914,45.1490768 27.4212843,44.5395243 L37.5619459,38.6890984 C38.6187416,38.0791222 39.4831092,36.5830141 39.4831092,35.3636368 L39.4831092,23.6631178 C39.4831697,22.4437405 38.6187416,20.9475114 37.5622486,20.3379589 L37.5622486,20.3379892 Z" id="Shape" fill="url(#linearGradient-1)" fill-rule="nonzero"></path>
                    <path d="M28.8203459,29.5135438 C28.8203459,33.2435373 25.794227,36.2674465 22.0612065,36.2674465 C18.3283676,36.2674465 15.3022184,33.2435373 15.3022184,29.5135438 L15.3022184,24.3585773 C15.3022184,23.4754724 16.0186551,22.7593081 16.9028497,22.7593081 C17.786893,22.7593081 18.5031784,23.4751395 18.5031784,24.3585773 L18.5031784,29.5132714 C18.5031784,31.4766919 20.0962724,33.0684541 22.0612065,33.0684541 C24.0262616,33.0684541 25.6192346,31.4766616 25.6192346,29.5132714 L25.6192346,24.3585773 C25.6192346,23.4754724 26.3359741,22.7593081 27.2197146,22.7593081 C28.1036065,22.7593081 28.820013,23.4751395 28.820013,24.3585773 L28.820013,29.5135741 L28.8203157,29.5135741 L28.8203459,29.5135438 Z" id="Path" fill="#59E6BD"></path>
                    <path d="M35.6983265,34.6680562 C35.6983265,35.5513427 34.9820411,36.2674768 34.0979978,36.2674768 C33.2139546,36.2674768 32.4973968,35.5513427 32.4973968,34.6680562 L32.4973968,24.3585773 C32.4973968,23.4754724 33.2139546,22.7593081 34.0979978,22.7593081 C34.9820411,22.7593081 35.6983265,23.4751395 35.6983265,24.3585773 L35.6983265,34.6680865 L35.6983265,34.6680562 Z" id="Path" fill="#59E6BD"></path>
                </g>
            </g>
        </g>
    </g>
</svg>